<svg xmlns="http://www.w3.org/2000/svg" viewBox="0 0 32 32" fill="none">
  <defs>
    <linearGradient id="g" x1="0%" y1="0%" x2="100%" y2="100%">
      <stop offset="0%" stop-color="#00f0ff"/>
      <stop offset="100%" stop-color="#8b5cf6"/>
    </linearGradient>
    <filter id="glow">
      <feGaussianBlur stdDeviation="1" result="blur"/>
      <feMerge><feMergeNode in="blur"/><feMergeNode in="SourceGraphic"/></feMerge>
    </filter>
  </defs>
  <rect width="32" height="32" rx="6" fill="#0a0a0f"/>
  <g filter="url(#glow)" stroke="url(#g)" stroke-width="1.5" stroke-linecap="round" fill="none">
    <!-- Palm -->
    <path d="M10 24 L10 14 Q10 12 12 12 L20 12 Q22 12 22 14 L22 24 Q22 26 16 26 Q10 26 10 24Z"/>
    <!-- Fingers -->
    <line x1="12" y1="12" x2="12" y2="6"/>
    <line x1="14.5" y1="12" x2="14.5" y2="4"/>
    <line x1="17" y1="12" x2="17" y2="4"/>
    <line x1="19.5" y1="12" x2="19.5" y2="6"/>
    <!-- Thumb -->
    <path d="M10 18 Q8 18 7 15"/>
    <!-- Sensor dots -->
    <circle cx="12" cy="9" r="0.8" fill="#00f0ff"/>
    <circle cx="14.5" cy="8" r="0.8" fill="#00f0ff"/>
    <circle cx="17" cy="8" r="0.8" fill="#8b5cf6"/>
    <circle cx="19.5" cy="9" r="0.8" fill="#8b5cf6"/>
    <circle cx="8" cy="16" r="0.8" fill="#ff00ff"/>
  </g>
</svg>
